<?xml version="1.0" encoding="utf-8"?>
<!-- Generator: Adobe Illustrator 16.0.0, SVG Export Plug-In . SVG Version: 6.00 Build 0)  -->
<!DOCTYPE svg PUBLIC "-//W3C//DTD SVG 1.1//EN" "http://www.w3.org/Graphics/SVG/1.1/DTD/svg11.dtd">
<svg version="1.1" id="Layer_1" xmlns="http://www.w3.org/2000/svg" xmlns:xlink="http://www.w3.org/1999/xlink" x="0px" y="0px"
	 width="896.955px" height="430.479px" viewBox="0 0 896.955 430.479" enable-background="new 0 0 896.955 430.479"
	 xml:space="preserve">
<g>
	<ellipse fill="#DAE7ED" cx="675.389" cy="335.971" rx="160.71" ry="9.863"/>
	<g>
		<circle fill="#4F565B" cx="581.265" cy="326.33" r="14.194"/>
		<circle fill="#4F565B" cx="721.796" cy="326.33" r="14.194"/>
		<g>
			<path fill="#029286" d="M520.855,285.236c-0.516-33.857,6.672-66.135,8.841-75.301c4.453-18.817,11.04-20.241,18.563-20.241
				c7.526,0,11.658,0,36.4,0h233.194c5.815,0,10.698,3.945,12.152,9.298c-47.708,0-148.327,0-161.303,0c-17.091,0-32.354,0-41.665,0
				c-9.313,0-12.134,4.744-13.935,14.2c-1.841,9.686-3.387,76.275-4.134,114.549l-88.069-3.318
				C520.9,324.422,521.087,300.671,520.855,285.236z"/>
			<path fill="#40BDA7" d="M627.038,198.992c9.311,0,24.573,0,41.665,0c12.976,0,113.596,0,161.303,0
				c0.287,1.056,0.453,2.163,0.453,3.308v117.786l-19.841,7.655H608.969c0.747-38.273,2.293-104.863,4.134-114.549
				C614.904,203.736,617.725,198.992,627.038,198.992z"/>
		</g>
		<path fill="#4F565B" d="M631.622,252.374h0.017h22.087h124.859c8.393,0,15.195,6.803,15.195,15.197v18.994H653.727v41.176h-32.927
			v-64.542C620.799,257.219,625.645,252.374,631.622,252.374z"/>
		<path fill="#4F565B" d="M830.458,307.33c0,0,0.043,6.168,0,12.756c-0.038,5.736-5.388,11.361-14.791,11.613
			c-9.402,0.249-196.985,0-289.4,0c-5.368,0-5.368-7.276-5.368-7.276s218.681,0,291.573,0
			C824.539,324.422,830.458,316.202,830.458,307.33z"/>
		<g>
			<circle fill="#4F565B" cx="789.14" cy="326.33" r="14.194"/>
			<circle fill="#B5D6EE" cx="789.141" cy="326.33" r="2.957"/>
		</g>
		<g>
			<circle fill="#4F565B" cx="755.246" cy="326.33" r="14.194"/>
			<circle fill="#B5D6EE" cx="755.246" cy="326.33" r="2.958"/>
		</g>
		<g>
			<circle fill="#4F565B" cx="664.9" cy="326.33" r="14.195"/>
			<circle fill="#B5D6EE" cx="664.9" cy="326.33" r="2.957"/>
		</g>
		<path fill="#4F565B" d="M605.368,312.7c-0.243,1.74-1.717,8.264-10.286,8.264h-13.816V312.7H605.368z"/>
		<polygon fill="#4F565B" points="531.634,312.7 531.634,320.964 520.9,320.964 520.94,312.7 		"/>
		<path fill="#4F565B" d="M620.797,245.706h197.94v-30.888c0-6.854-5.556-12.41-12.409-12.41H632.643
			c-6.541,0-11.845,5.304-11.845,11.844V245.706z"/>
		<g>
			<path fill="#E1EEF7" d="M794.478,216.178V207.6h7.867c4.875,0,8.826,3.79,9.166,8.579H794.478z"/>
			<rect x="766.396" y="207.6" fill="#E1EEF7" width="17.099" height="8.579"/>
			<rect x="739.43" y="207.6" fill="#E1EEF7" width="17.1" height="8.579"/>
			<rect x="711.192" y="207.6" fill="#E1EEF7" width="17.1" height="8.579"/>
			<rect x="684.238" y="207.6" fill="#E1EEF7" width="17.1" height="8.579"/>
			<rect x="657.284" y="207.6" fill="#E1EEF7" width="17.1" height="8.579"/>
			<path fill="#E1EEF7" d="M630.33,216.178v-1.146c0-4.106,3.328-7.433,7.431-7.433h9.669v8.579H630.33z"/>
		</g>
		<g>
			<path fill="#E1EEF7" d="M766.396,268.033v-9.315h7.869c5.098,0,9.23,4.134,9.23,9.231v0.084H766.396z"/>
			<rect x="739.43" y="258.718" fill="#E1EEF7" width="17.1" height="9.315"/>
			<rect x="711.192" y="258.718" fill="#E1EEF7" width="17.1" height="9.315"/>
			<rect x="684.238" y="258.718" fill="#E1EEF7" width="17.1" height="9.315"/>
			<rect x="657.284" y="258.718" fill="#E1EEF7" width="17.1" height="9.315"/>
			<path fill="#E1EEF7" d="M630.33,268.033v-1.882c0-4.104,3.328-7.433,7.431-7.433h9.669v9.315H630.33z"/>
		</g>
		<g>
			<path fill="#4F565B" d="M522.505,252.374h71.919c-0.522,5.309-0.962,10.593-1.268,15.659c-1.107,18.318-4.41,31.034-9.973,39.133
				c-5.009,0.183-10.664,0.175-16.578,0.147c-18.371-0.089-45.78-0.336-45.78-0.336S518.801,273.166,522.505,252.374z"/>
			<path fill="#4F565B" d="M524.479,234.506c0,0,1.789-21.409,8.937-35.514h68.314c-1.126,6.663-3.32,20.211-5.269,35.514H524.479z"
				/>
			<path fill="#E1EEF7" d="M594.425,252.374h6.572c2.542,0,4.559,2.137,4.411,4.673c-0.75,12.707-2.565,42.602-3.092,44.731
				c-0.928,3.753-8.579,5-19.131,5.388c5.563-8.099,8.866-20.814,9.973-39.133C593.463,262.966,593.902,257.682,594.425,252.374z"/>
			<path fill="#E1EEF7" d="M609.591,204.021l-3.673,26.294c-0.335,2.403-2.393,4.191-4.817,4.191h-4.64
				c1.949-15.303,4.143-28.851,5.269-35.514h3.488C607.901,198.992,609.964,201.364,609.591,204.021z"/>
		</g>
		<path fill="#029286" d="M526.268,242.663c0,0-7.982,0-13.116,0s-9.242,5.05-9.754,13.669s-0.229,15.125-0.229,15.125
			s6.744,1.348,6.904-8.081c0.169-10.231,1.591-13.585,4.645-13.824c3.055-0.242,11.55-0.054,11.55-0.054V242.663z"/>
		<path fill="#40BDA7" d="M612.354,242.663c0,0-7.983,0-13.117,0c-5.133,0-9.242,5.05-9.754,13.669
			c-0.514,8.62-0.229,15.125-0.229,15.125s6.744,1.348,6.902-8.081c0.172-10.231,1.593-13.585,4.646-13.824
			c3.055-0.242,11.551-0.054,11.551-0.054V242.663z"/>
	</g>
</g>
</svg>
