<?xml version="1.0" encoding="utf-8"?>
<!-- Generator: Adobe Illustrator 16.0.0, SVG Export Plug-In . SVG Version: 6.00 Build 0)  -->
<!DOCTYPE svg PUBLIC "-//W3C//DTD SVG 1.1//EN" "http://www.w3.org/Graphics/SVG/1.1/DTD/svg11.dtd">
<svg version="1.1" id="Layer_1" xmlns="http://www.w3.org/2000/svg" xmlns:xlink="http://www.w3.org/1999/xlink" x="0px" y="0px"
	 width="896.955px" height="430.479px" viewBox="0 0 896.955 430.479" enable-background="new 0 0 896.955 430.479"
	 xml:space="preserve">
<path fill="#E1EEF7" d="M164.042,252.844c-3.517,0-6.823,0.899-9.704,2.479c-4.702-7.094-12.753-11.774-21.901-11.774
	c-2.1,0-4.14,0.254-6.097,0.72c-2.16-17.048-16.706-30.233-34.34-30.233c-19.124,0-34.627,15.502-34.627,34.626
	c0,0.035,0.002,0.069,0.002,0.104c-0.689-0.068-1.387-0.104-2.094-0.104c-11.68,0-21.148,9.468-21.148,21.148h149.864
	C182.44,260.19,174.101,252.844,164.042,252.844z"/>
<path fill="#E1EEF7" d="M382.967,83.949c0.02-0.344,0.033-0.69,0.033-1.039c0-9.544-7.736-17.281-17.28-17.281
	c-1.811,0-3.557,0.28-5.197,0.796c0-0.06,0.004-0.12,0.004-0.18c0-11.812-9.575-21.387-21.386-21.387
	c-9.413,0-17.4,6.084-20.257,14.533c-2.485-1.49-5.392-2.348-8.5-2.348c-9.144,0-16.556,7.412-16.556,16.556
	c0,1.05,0.102,2.077,0.289,3.073c-8.007,1.162-14.159,8.052-14.159,16.381c0,9.144,7.413,16.556,16.556,16.556h82.249
	c7.276,0,13.175-5.899,13.175-13.175C391.937,90.629,388.18,85.704,382.967,83.949z"/>
<path fill="#E1EEF7" d="M753.728,128.952c-0.965,0-1.913,0.07-2.845,0.192c-3.358-11.335-13.845-19.606-26.27-19.606
	c-11.305,0-21.009,6.848-25.196,16.621c-2.471-0.983-5.163-1.529-7.985-1.529c-8.695,0-16.186,5.135-19.619,12.536
	c-2.275-1.07-4.813-1.671-7.494-1.671c-7.517,0-13.93,4.706-16.465,11.332c-1.686-0.774-3.555-1.217-5.531-1.217
	c-7.341,0-13.292,5.952-13.292,13.293s5.951,13.292,13.292,13.292h111.404c11.941,0,21.621-9.68,21.621-21.621
	C775.348,138.632,765.668,128.952,753.728,128.952z"/>
</svg>
