<?xml version="1.0" encoding="utf-8"?>
<!-- Generator: Adobe Illustrator 22.0.0, SVG Export Plug-In . SVG Version: 6.00 Build 0)  -->
<svg version="1.1" id="Capa_1" xmlns="http://www.w3.org/2000/svg" xmlns:xlink="http://www.w3.org/1999/xlink" x="0px" y="0px"
	 viewBox="0 0 448 448" style="enable-background:new 0 0 448 448;" xml:space="preserve">
<path d="M225.6,284.1l68.1,68.1c2.7,2.7,7.2,2.7,9.9,0l24.3-24.3c1.4-1.4,2-3.2,2-4.9c0-1.8-0.7-3.6-2-4.9L259.7,250l68.1-68.1
	c1.4-1.4,2-3.2,2-4.9c0-1.8-0.7-3.6-2-4.9l-24.3-24.3c-2.7-2.7-7.2-2.7-9.9,0l-68.1,68.1l-68.1-68.1c-2.7-2.7-7.2-2.7-9.9,0
	l-24.3,24.3c-1.4,1.4-2,3.2-2,4.9c0,1.8,0.7,3.6,2,4.9l68.1,68.1l-68.1,68.1c-1.4,1.4-2,3.2-2,4.9c0,1.8,0.7,3.6,2,4.9l24.3,24.3
	c2.7,2.7,7.2,2.7,9.9,0L225.6,284.1z"/>
<path d="M280,143.7V0h-16c0,0-15.8,97-15.8,128c0,2.6-0.2,5.3-0.2,8c0,12.6,1.4,24.6,3.9,35.8L280,143.7z"/>
<polygon points="298.6,339.5 315,323 289.2,297.2 286.7,327.6 "/>
<path d="M298.6,160.5l-37.7,37.7c2.3,5,4.9,9.7,7.7,13.9c1.6,2.3,3.1,4.5,4.6,6.7L315,177L298.6,160.5z"/>
<path d="M114,255.3l-2.7,40.8l46.1-46.1l-51.1-51.1c-5.9-5.9-9.1-13.6-9.1-21.9s3.2-16.1,9.1-21.9l24.3-24.3
	c5.9-5.9,13.6-9.1,21.9-9.1s16.1,3.2,21.9,9.1l18.9,18.9c4.2-13.8,6.6-29.3,6.6-45.8c0-57.4-28.7-104-64-104S72,46.6,72,104
	c0,30.1,7.8,57.2,20.4,76.2C113,209,115.6,230.7,114,255.3z"/>
<path d="M152.6,378.3c-8.3,0-16.1-3.2-21.9-9.1l-22.6-22.6l-4.3,65.9c0,19.6,14.4,35.5,32.2,35.5s32.2-15.9,32.2-35.5l-2.4-37.2
	C161.7,377.2,157.2,378.3,152.6,378.3z"/>
<g>
	<path d="M298.6,121.7c8.3,0,16.1,3.2,21.9,9.1l6.5,6.5L320.7,0h-17.1h-0.2l-5.6,121.8C298,121.8,298.3,121.7,298.6,121.7z"/>
	<path d="M375.8,128C375.8,97,360,0,360,0h-16v144h-10.3l11.1,11.1c5.9,5.9,9.1,13.6,9.1,21.9s-3.2,16.1-9.1,21.9L293.6,250
		l40.6,40.6l-0.3-3.2c-1.6-24.6,1-46.4,21.5-75.1c12.6-19,20.6-46.1,20.6-76.2C376,133.3,375.8,130.6,375.8,128z"/>
</g>
<path d="M320.5,369.2c-5.9,5.9-13.6,9.1-21.9,9.1c-5.6,0-10.9-1.5-15.6-4.2l-3.2,38.5c0,19.6,14.4,35.5,32.2,35.5
	s32.2-15.9,32.2-35.5l-5.1-61.9L320.5,369.2z"/>
</svg>
