<?xml version="1.0" encoding="utf-8"?>
<!-- Generator: Adobe Illustrator 22.0.0, SVG Export Plug-In . SVG Version: 6.00 Build 0)  -->
<svg version="1.1" id="Capa_1" xmlns="http://www.w3.org/2000/svg" xmlns:xlink="http://www.w3.org/1999/xlink" x="0px" y="0px"
	 viewBox="0 0 448 448" style="enable-background:new 0 0 448 448;" xml:space="preserve">
<g>
	<g>
		<g>
			<path d="M288,136c0-2.7-0.2-5.4-0.2-8C287.8,97,272,0,272,0h-16v144h-16.7L232.7,0h-17.1h-0.2l-6.6,144H192V0h-16
				c0,0-15.8,97-15.8,128c0,2.6-0.2,5.3-0.2,8c0,30.1,7.9,57.2,20.5,76.2c20.5,28.8,23.1,50.5,21.5,75.1l-10.3,125.2
				c0,19.6,14.4,35.5,32.2,35.5s32.2-15.9,32.2-35.5l-10.3-125.2c-1.6-24.6,1-46.4,21.5-75.1C280.1,193.2,288,166.1,288,136z"/>
		</g>
	</g>
</g>
</svg>
