<?xml version="1.0" encoding="iso-8859-1"?>
<!-- Generator: Adobe Illustrator 19.0.0, SVG Export Plug-In . SVG Version: 6.00 Build 0)  -->
<svg version="1.1" id="Capa_1" xmlns="http://www.w3.org/2000/svg" xmlns:xlink="http://www.w3.org/1999/xlink" x="0px" y="0px"
	 viewBox="0 0 448 448" style="enable-background:new 0 0 448 448;" xml:space="preserve">
<g>
	<g>
		<path d="M376,272v144c0,17.68,14.336,32,32,32c17.68,0,32-14.32,32-32V272H376z"/>
	</g>
</g>
<g>
	<g>
		<path d="M412.256,5.648C398.16-6.832,376,2.688,376,21.488V256h42.672c11.776,0,21.328-9.552,21.328-21.328V71.712
			C440,43.024,429.2,20.624,412.256,5.648z"/>
	</g>
</g>
<g>
	<g>
		<path d="M136,104C136,46.56,107.344,0,72,0C36.656,0,8,46.56,8,104c0,30.144,7.808,57.2,20.416,76.208
			c20.544,28.784,23.216,50.48,21.632,75.12L39.792,412.48C39.792,432.096,54.208,448,72,448s32.208-15.904,32.208-35.52
			L93.952,255.328c-1.584-24.64,0.96-46.352,21.504-75.12C128.064,161.2,136,134.144,136,104z"/>
	</g>
</g>
<g>
	<g>
		<path d="M312,136c0-2.688-0.192-5.36-0.192-8C311.808,97.008,296,0,296,0h-16v144h-16.736L256.656,0h-17.088h-0.208l-6.608,144
			H216V0h-16c0,0-15.808,97.008-15.808,128c0,2.64-0.192,5.312-0.192,8c0,30.144,7.936,57.2,20.544,76.208
			c20.544,28.784,23.088,50.48,21.504,75.12L215.776,412.48c0,19.616,14.416,35.52,32.208,35.52s32.208-15.904,32.208-35.52
			l-10.256-125.152c-1.584-24.64,0.96-46.352,21.504-75.12C304.064,193.2,312,166.144,312,136z"/>
	</g>
</g>
<g>
</g>
<g>
</g>
<g>
</g>
<g>
</g>
<g>
</g>
<g>
</g>
<g>
</g>
<g>
</g>
<g>
</g>
<g>
</g>
<g>
</g>
<g>
</g>
<g>
</g>
<g>
</g>
<g>
</g>
</svg>
