<?xml version="1.0" encoding="utf-8"?>
<!-- Generator: Adobe Illustrator 22.0.0, SVG Export Plug-In . SVG Version: 6.00 Build 0)  -->
<svg version="1.1" id="Layer_1" focusable="false" xmlns="http://www.w3.org/2000/svg" xmlns:xlink="http://www.w3.org/1999/xlink"
	 x="0px" y="0px" viewBox="0 0 640 512" style="enable-background:new 0 0 640 512;" xml:space="preserve">
<path d="M11.1,210.7C3.9,219.3,0,230.2,0,241.4L0,352c0,17.7,14.3,32,32,32h32c0,53,43,96,96,96s96-43,96-96h128c0,53,43,96,96,96
	s96-43,96-96h32c17.7,0,32-14.3,32-32V64c0-17.7-14.3-32-32-32H182.5c-14.2,0-27.8,6.3-36.9,17.3L11.1,210.7L11.1,210.7z M480,192
	V96h96v96H480z M432,384c0-26.5,21.5-48,48-48c26.5,0,48,21.5,48,48s-21.5,48-48,48C453.5,432,432,410.5,432,384z M320,96h96v96h-96
	V96z M112,384c0-26.5,21.5-48,48-48s48,21.5,48,48s-21.5,48-48,48S112,410.5,112,384z M110,192l80-96h66v96H110z"/>
</svg>
