<?xml version="1.0" encoding="utf-8"?>
<!-- Generator: Adobe Illustrator 22.0.0, SVG Export Plug-In . SVG Version: 6.00 Build 0)  -->
<svg version="1.1" id="Layer_1" xmlns="http://www.w3.org/2000/svg" xmlns:xlink="http://www.w3.org/1999/xlink" x="0px" y="0px"
	 viewBox="0 0 512 512" style="enable-background:new 0 0 512 512;" xml:space="preserve">
<g>
	<g>
		<path d="M503.5,303.6H25.6c-4.7,0-8.5,3.8-8.5,8.5v90.3L2.5,417c-1.6,1.6-2.5,3.8-2.5,6v59.7c0,4.7,3.8,8.5,8.5,8.5h115.7
			c5.9,10.2,16.8,17.1,29.4,17.1s23.5-6.9,29.4-17.1h171.6c5.9,10.2,16.8,17.1,29.4,17.1c12.8,0,23.9-7.2,29.7-17.7l91.3-16.6
			c4.1-0.7,7-4.3,7-8.4V312.1C512,307.4,508.2,303.6,503.5,303.6z M93.9,444.4c0,2.4-1.9,4.3-4.3,4.3H55.5c-2.4,0-4.3-1.9-4.3-4.3
			v-93.9c0-2.4,1.9-4.3,4.3-4.3h34.1c2.4,0,4.3,1.9,4.3,4.3V444.4z M153.6,491.3c-9.4,0-17.1-7.7-17.1-17.1s7.7-17.1,17.1-17.1
			s17.1,7.7,17.1,17.1S163,491.3,153.6,491.3z M187.7,384.7c0,2.4-1.9,4.3-4.3,4.3h-68.3c-2.4,0-4.3-1.9-4.3-4.3v-34.1
			c0-2.4,1.9-4.3,4.3-4.3h68.3c2.4,0,4.3,1.9,4.3,4.3L187.7,384.7L187.7,384.7z M290.1,384.7c0,2.4-1.9,4.3-4.3,4.3h-76.8
			c-2.4,0-4.3-1.9-4.3-4.3v-34.1c0-2.4,1.9-4.3,4.3-4.3h76.8c2.4,0,4.3,1.9,4.3,4.3V384.7z M311.5,388.9c-2.4,0-4.3-1.9-4.3-4.3
			v-34.1c0-2.4,1.9-4.3,4.3-4.3h76.8c2.4,0,4.3,1.9,4.3,4.3v34.1c0,2.4-1.9,4.3-4.3,4.3H311.5z M384,491.3
			c-9.4,0-17.1-7.7-17.1-17.1s7.7-17.1,17.1-17.1s17.1,7.7,17.1,17.1S393.4,491.3,384,491.3z M494.9,384.7c0,2.4-1.9,4.3-4.3,4.3
			h-76.8c-2.4,0-4.3-1.9-4.3-4.3v-34.1c0-2.4,1.9-4.3,4.3-4.3h76.8c2.4,0,4.3,1.9,4.3,4.3V384.7z"/>
	</g>
</g>
<path d="M468.8,256.5l43.9-78.1l-56.9-3.6l-36.9,45.1l-129.1-10.8L402.1,56.7l-63.1-4L174.6,199.3L49.1,188.8
	c-23-2-43,15.3-44.4,38.3c-1.5,22.9,16.2,42.6,39.3,43.6l125.8,5.4l115.5,4.9l129.4,5.6l37.9-0.2L468.8,256.5z"/>
</svg>
