<?xml version="1.0" encoding="utf-8"?>
<!-- Generator: Adobe Illustrator 22.0.0, SVG Export Plug-In . SVG Version: 6.00 Build 0)  -->
<svg version="1.1" id="Layer_1" xmlns="http://www.w3.org/2000/svg" xmlns:xlink="http://www.w3.org/1999/xlink" x="0px" y="0px"
	 viewBox="0 0 512 512" style="enable-background:new 0 0 512 512;" xml:space="preserve">
<g>
	<path d="M504.5,218.9c4.1,0,7.5-3.4,7.5-7.5v-73.7c0-15.3-12.4-27.7-27.7-27.7H359.9c0,0.1,0,0.2,0,0.3v15c0,4.1-3.4,7.5-7.5,7.5
		c-4.1,0-7.5-3.4-7.5-7.5v-15c0-0.1,0-0.2,0-0.3H88.5h-5H27.7C12.4,110,0,122.4,0,137.7v73.7c0,4.1,3.4,7.5,7.5,7.5
		c20.4,0,36.9,16.6,36.9,36.9c0,20.4-16.6,36.9-36.9,36.9c-4.1,0-7.5,3.4-7.5,7.5v73.7c0,15.3,12.4,27.7,27.7,27.7h305.8h11.4v-13.3
		c0-4.1,3.4-7.5,7.5-7.5c4.1,0,7.5,3.4,7.5,7.5v13.3h124.4c15.3,0,27.7-12.4,27.7-27.7v-73.7c0-4.1-3.4-7.5-7.5-7.5
		c-20.4,0-36.9-16.6-36.9-36.9C467.6,235.5,484.1,218.9,504.5,218.9z M219.8,217.9c-2-1.2-5.3-2.4-9.9-3.5
		c-5.2-1.3-9.4-2.6-12.7-4.1c-3.3-1.4-5.9-3.3-7.8-5.6c-2-2.3-2.9-5.2-2.9-8.6c0-3,0.9-5.9,2.7-8.6c1.8-2.7,4.5-4.8,8-6.4
		c3.5-1.6,7.8-2.4,12.7-2.4c3.9,0,7.4,0.4,10.5,1.2c3.1,0.8,5.7,1.9,7.8,3.3c2.1,1.4,3.7,2.9,4.7,4.5c1.1,1.7,1.6,3.3,1.6,4.9
		c0,1.7-0.6,3.1-1.7,4.2s-2.8,1.7-4.9,1.7c-1.5,0-2.9-0.4-3.9-1.3c-1.1-0.9-2.3-2.2-3.7-4c-1.1-1.5-2.5-2.6-4-3.5s-3.6-1.3-6.3-1.3
		c-2.7,0-5,0.6-6.8,1.7c-1.8,1.2-2.7,2.6-2.7,4.3c0,1.6,0.7,2.9,2,3.9s3.1,1.8,5.4,2.5c2.2,0.7,5.3,1.5,9.3,2.4
		c4.7,1.1,8.5,2.5,11.4,4.1c3,1.6,5.2,3.4,6.7,5.6c1.5,2.2,2.3,4.6,2.3,7.4c0,4.2-1,7.7-3,10.7c-2,3-5,5.2-9,6.7
		c-4,1.5-8.8,2.3-14.4,2.3c-5.4,0-10-0.8-13.9-2.5s-6.7-3.7-8.6-6.2c-1.8-2.5-2.8-5-2.8-7.5c0-1.7,0.6-3.1,1.8-4.2s2.7-1.8,4.5-1.8
		c1.6,0,2.8,0.4,3.6,1.2c0.8,0.8,1.7,1.9,2.4,3.3c1.5,2.7,3.4,4.7,5.5,6s5.1,2,8.8,2c3,0,5.5-0.7,7.4-2c1.9-1.3,2.9-2.9,2.9-4.6
		C222.8,221.1,221.8,219.1,219.8,217.9z M160.7,159.2c1.5-1.4,3.3-2.1,5.3-2.1c1.9,0,3.7,0.6,5.2,1.9c1.5,1.2,2.3,3.1,2.3,5.5
		c0,2.3-0.7,4.1-2.2,5.4c-1.5,1.3-3.2,2-5.2,2c-2.1,0-3.9-0.6-5.4-1.9c-1.5-1.3-2.2-3.1-2.2-5.5
		C158.4,162.3,159.1,160.6,160.7,159.2z M158.4,187.9c0-3,0.7-5.2,2.1-6.7c1.4-1.5,3.2-2.3,5.4-2.3s4,0.8,5.5,2.3
		c1.4,1.5,2.2,3.6,2.2,6.3V231c0,3-0.7,5.3-2.2,6.8c-1.4,1.5-3.3,2.3-5.5,2.3s-4-0.8-5.4-2.4c-1.4-1.6-2.1-3.8-2.1-6.8V187.9z
		 M93.3,182.3c0.6-1,1.5-1.8,2.6-2.5c1.1-0.6,2.3-1,3.6-1c2.5,0,4.2,0.7,5.2,2.2c0.9,1.4,2,3.8,3.1,7.2l12.2,34.2l13.1-35.7
		c1-2.9,2-4.9,3-6.1s2.5-1.8,4.5-1.8c1.9,0,3.5,0.6,4.9,1.9c1.3,1.3,2,2.8,2,4.5c0,0.7-0.1,1.4-0.4,2.3s-0.5,1.7-0.8,2.5
		c-0.3,0.8-0.7,1.7-1.1,2.6l-14.5,35.9c-0.4,1-0.9,2.3-1.6,3.9c-0.6,1.6-1.4,2.9-2.2,4.1c-0.8,1.1-1.8,2-2.9,2.6
		c-1.2,0.6-2.6,0.9-4.2,0.9c-2.1,0-3.8-0.5-5.1-1.5c-1.3-1-2.2-2-2.8-3.2c-0.6-1.2-1.6-3.4-3.1-6.9l-14.3-35.5
		c-0.3-0.9-0.7-1.8-1-2.6c-0.4-0.9-0.6-1.8-0.9-2.7c-0.2-0.9-0.4-1.7-0.4-2.4C92.4,184.4,92.7,183.3,93.3,182.3z M155.5,357.9H94.9
		c-4.1,0-7.5-3.4-7.5-7.5c0-4.1,3.4-7.5,7.5-7.5h60.6c4.1,0,7.5,3.4,7.5,7.5C163,354.5,159.7,357.9,155.5,357.9z M117.7,310
		c0-4.1,3.4-7.5,7.5-7.5h141.4c4.1,0,7.5,3.4,7.5,7.5c0,4.1-3.4,7.5-7.5,7.5H125.2C121.1,317.5,117.7,314.1,117.7,310z M297,357.9
		h-60.6c-4.1,0-7.5-3.4-7.5-7.5c0-4.1,3.4-7.5,7.5-7.5H297c4.1,0,7.5,3.4,7.5,7.5C304.5,354.5,301.1,357.9,297,357.9z M297,288.2
		h-202c-4.1,0-7.5-3.4-7.5-7.5c0-4.1,3.4-7.5,7.5-7.5h202c4.1,0,7.5,3.4,7.5,7.5C304.5,284.8,301.1,288.2,297,288.2z M302.6,238.2
		c-1.5,1.3-3.1,1.9-4.9,1.9c-1.5,0-3.1-0.7-4.6-2.2c-1.5-1.5-3.1-3.6-4.8-6.3c-3.6,2.8-7.2,5-10.6,6.4c-3.4,1.4-7.2,2.1-11.4,2.1
		c-3.9,0-7.3-0.8-10.2-2.3c-2.9-1.5-5.2-3.6-6.8-6.2s-2.4-5.4-2.4-8.5c0-4.1,1.3-7.6,3.9-10.5c2.6-2.9,6.2-4.9,10.8-5.8
		c1-0.2,3.3-0.7,7.1-1.5c3.8-0.8,7-1.5,9.7-2.1s5.6-1.4,8.8-2.3c-0.2-4-1-6.9-2.4-8.7s-4.3-2.8-8.8-2.8c-3.8,0-6.7,0.5-8.6,1.6
		c-1.9,1.1-3.6,2.7-5,4.8c-1.4,2.1-2.4,3.5-2.9,4.2s-1.8,1-3.7,1c-1.7,0-3.2-0.5-4.4-1.6c-1.2-1.1-1.8-2.5-1.8-4.2
		c0-2.6,0.9-5.2,2.8-7.7c1.9-2.5,4.8-4.6,8.8-6.2c4-1.6,8.9-2.4,14.8-2.4c6.6,0,11.8,0.8,15.6,2.3s6.5,4,8,7.4
		c1.6,3.4,2.3,7.9,2.3,13.5c0,3.5,0,6.5,0,9c0,2.5,0,5.2-0.1,8.2c0,2.8,0.5,5.8,1.4,8.9s1.4,5,1.4,5.9
		C304.8,235.5,304.1,236.9,302.6,238.2z M359.9,364.4c0,4.1-3.4,7.5-7.5,7.5c-4.1,0-7.5-3.4-7.5-7.5v-15c0-4.1,3.4-7.5,7.5-7.5
		c4.1,0,7.5,3.4,7.5,7.5V364.4z M359.9,325c0,4.1-3.4,7.5-7.5,7.5c-4.1,0-7.5-3.4-7.5-7.5v-15c0-4.1,3.4-7.5,7.5-7.5
		c4.1,0,7.5,3.4,7.5,7.5V325z M359.9,285.6c0,4.1-3.4,7.5-7.5,7.5c-4.1,0-7.5-3.4-7.5-7.5v-15c0-4.1,3.4-7.5,7.5-7.5
		c4.1,0,7.5,3.4,7.5,7.5V285.6z M359.9,246.2c0,4.1-3.4,7.5-7.5,7.5c-4.1,0-7.5-3.4-7.5-7.5v-15c0-4.1,3.4-7.5,7.5-7.5
		c4.1,0,7.5,3.4,7.5,7.5V246.2z M359.9,206.8c0,4.1-3.4,7.5-7.5,7.5c-4.1,0-7.5-3.4-7.5-7.5v-15c0-4.1,3.4-7.5,7.5-7.5
		c4.1,0,7.5,3.4,7.5,7.5V206.8z M359.9,167.4c0,4.1-3.4,7.5-7.5,7.5c-4.1,0-7.5-3.4-7.5-7.5v-15c0-4.1,3.4-7.5,7.5-7.5
		c4.1,0,7.5,3.4,7.5,7.5V167.4z M387.8,201.4h31.3c4.1,0,7.5,3.4,7.5,7.5c0,4.1-3.4,7.5-7.5,7.5h-31.3c-4.1,0-7.5-3.4-7.5-7.5
		C380.3,204.8,383.6,201.4,387.8,201.4z M380.3,180.7c0-4.1,3.4-7.5,7.5-7.5h31.3c4.1,0,7.5,3.4,7.5,7.5c0,4.1-3.4,7.5-7.5,7.5
		h-31.3C383.6,188.2,380.3,184.8,380.3,180.7z M429.2,370h-41.4c-4.1,0-7.5-3.4-7.5-7.5c0-4.1,3.4-7.5,7.5-7.5h41.4
		c4.1,0,7.5,3.4,7.5,7.5C436.7,366.6,433.3,370,429.2,370z M429.2,341.7h-41.4c-4.1,0-7.5-3.4-7.5-7.5c0-4.1,3.4-7.5,7.5-7.5h41.4
		c4.1,0,7.5,3.4,7.5,7.5C436.7,338.3,433.3,341.7,429.2,341.7z M448.4,159.9h-60.6c-4.1,0-7.5-3.4-7.5-7.5c0-4.1,3.4-7.5,7.5-7.5
		h60.6c4.1,0,7.5,3.4,7.5,7.5C455.9,156.5,452.5,159.9,448.4,159.9z"/>
	<path d="M268.9,214.4c-1.6,0.4-3.2,1.3-4.6,2.5c-1.5,1.2-2.2,3-2.2,5.2c0,2.3,0.9,4.2,2.6,5.8c1.7,1.6,4,2.4,6.8,2.4
		c3,0,5.7-0.7,8.2-2c2.5-1.3,4.4-3,5.5-5c1.4-2.3,2-6,2-11.3v-2.2c-2.2,0.8-5.4,1.7-9.6,2.6C273.5,213.3,270.6,214,268.9,214.4z"/>
</g>
</svg>
