<?xml version="1.0" encoding="utf-8"?>
<!-- Generator: Adobe Illustrator 16.0.0, SVG Export Plug-In . SVG Version: 6.00 Build 0)  -->
<!DOCTYPE svg PUBLIC "-//W3C//DTD SVG 1.1//EN" "http://www.w3.org/Graphics/SVG/1.1/DTD/svg11.dtd">
<svg version="1.1" id="Layer_1" xmlns="http://www.w3.org/2000/svg" xmlns:xlink="http://www.w3.org/1999/xlink" x="0px" y="0px"
	 width="896.955px" height="430.479px" viewBox="0 0 896.955 430.479" enable-background="new 0 0 896.955 430.479"
	 xml:space="preserve">
<g>
	<ellipse fill="#DAE7ED" cx="513.221" cy="296.869" rx="236.014" ry="10.608"/>
	<g>
		<circle fill="#ACB9CB" cx="358.501" cy="291.013" r="9.335"/>
		
			<rect x="356.335" y="263.65" transform="matrix(-1 0.0028 -0.0028 -1 717.2739 553.656)" fill="#ACB9CB" width="3.826" height="27.363"/>
		
			<rect x="348.538" y="254.124" transform="matrix(-0.8176 0.5757 -0.5757 -0.8176 789.7657 285.4517)" fill="#ACB9CB" width="2.275" height="27.355"/>
	</g>
	<g>
		<circle fill="#ACB9CB" cx="495.635" cy="283.667" r="9.335"/>
		
			<rect x="493.469" y="256.303" transform="matrix(-1 0.0028 -0.0028 -1 991.5184 538.578)" fill="#ACB9CB" width="3.825" height="27.364"/>
		
			<rect x="485.672" y="246.777" transform="matrix(-0.8177 0.5756 -0.5756 -0.8177 1034.8073 193.2442)" fill="#ACB9CB" width="2.274" height="27.355"/>
	</g>
	<g>
		<circle fill="#ACB9CB" cx="562.977" cy="289.789" r="9.335"/>
		
			<rect x="560.81" y="262.425" transform="matrix(-1 0.0028 -0.0028 -1 1126.2192 550.6329)" fill="#ACB9CB" width="3.826" height="27.363"/>
		
			<rect x="553.013" y="252.899" transform="matrix(-0.8177 0.5756 -0.5756 -0.8177 1160.741 165.6112)" fill="#ACB9CB" width="2.274" height="27.355"/>
	</g>
	<g>
		<g>
			<g>
				<path fill="#B5D6EE" d="M522.63,268.301v-0.004c0.051,0.001,0.103,0.002,0.155,0.004c0.764,0.007,1.527,0.027,2.286,0.054
					c0.225,0.005,0.447,0.014,0.668,0.021c0.47,0.017,0.949,0.023,1.41,0.045v0.036c2.155,0.124,4.253,0.331,6.216,0.647
					c5.342,0.859,9.2,5.585,9.2,10.994v4.126c0,4.95-3.538,9.19-8.411,10.066c-2.186,0.393-4.56,0.641-7.005,0.782v0.035
					c-0.465,0.02-0.945,0.029-1.417,0.045c-0.213,0.008-0.427,0.014-0.645,0.02c-0.765,0.026-1.533,0.048-2.305,0.056
					c-0.05,0-0.102,0.003-0.153,0.003v-0.003c-8.644,0.1-17.652-0.709-22.291-3.953v-19.023
					C504.978,269.01,513.986,268.202,522.63,268.301z"/>
				<ellipse fill="#00A698" cx="500.723" cy="281.769" rx="3.656" ry="9.539"/>
				<path fill="#029286" d="M498.101,281.884c0,3.336,1,6.042,2.238,6.042c1.233,0,2.234-2.706,2.234-6.042
					c0-3.338-1-6.045-2.234-6.045C499.102,275.839,498.101,278.546,498.101,281.884z"/>
			</g>
			<path fill="#00A698" d="M749.236,195.631l-42.858,26.66h-30.18c0,0,43.135-21.461,58.865-26.66
				C741.831,193.395,749.236,195.631,749.236,195.631z"/>
			<polygon fill="#00A698" points="507.571,235.062 557.463,180.307 570.735,156.201 561.566,156.201 540.477,177.295 
				407.464,235.062 			"/>
			<polygon fill="#029286" points="718.167,213.52 747.037,136.892 731.905,136.892 684.186,192.354 646.663,216.032 			"/>
			<g>
				<path fill="#E1EEF7" d="M289.142,236.523c12.775-10.741,27.04-21.483,62.361-21.483c35.321,0,204.449,0.349,256.359,0.349
					c51.909,0,111.237-2.873,131.292-3.16c0.173,3.054,0.244,4.644,0.274,6.178c-19.118,2.636-44.487,5.43-73.599,6.884
					c-64.659,3.228-288.206,0.603-305.57,1.053c-17.365,0.453-44.404,15.327-51.323,28.003c-2.339,4.284-3.908,8.641-4.976,12.869
					c-2.244,0-4.521-0.002-6.753-0.002C267.057,267.214,276.37,247.265,289.142,236.523z"/>
				<path fill="#B5D6EE" d="M360.26,226.344c17.365-0.451,240.911,2.175,305.57-1.053c29.112-1.454,54.48-4.248,73.599-6.884
					c0.034,1.667,0.022,3.265,0.043,6.604c-17.773,12.118-78.286,42.885-114.366,42.885c-120.089,0-226.947-0.648-321.145-0.679
					c1.068-4.229,2.637-8.585,4.976-12.869C315.856,241.671,342.895,226.797,360.26,226.344z"/>
			</g>
			<path fill="#B5D6EE" d="M312.403,265.51c31.352,0.888,288.229,2.825,331.598-1.264c3.742-0.353,13.485-1.975,18.295-3.659
				c30.784-10.783,77.176-38.85,77.176-38.85v3.272c0,0-41.987,28.968-77.918,41.595c-6.146,2.163-11.595,2.627-21.31,3.371
				c-50.954,3.908-177.479,3.309-203.509,3.309c0,0-94.352,0.033-125.802,0.033c-14.528,0-26.349-4.385-30.775-9.179
				c-3.082-3.336-2.95-6.438-2.95-6.438S281.048,264.623,312.403,265.51z"/>
			<g>
				<path fill="#ACB9CB" d="M340.525,231.093l-0.39,7.113c0,0-6.553,1.22-18.585,1.473l3.008-9.237
					C328.881,230.809,334.439,230.922,340.525,231.093z"/>
				<path fill="#ACB9CB" d="M289.142,236.523c0,0,4.76-4.152,6.375-5.354c1.814-1.352,7.348-4.825,7.348-4.825
					s3.666,2.286,18.39,3.794l-4.478,9.566C304.836,239.517,289.142,236.523,289.142,236.523z"/>
			</g>
			<path fill="#00A698" d="M538.034,250.042c7.437,0,14.802,1.475,21.667,4.34l6.042,2.523l103.439,43.931l17.983-21.523
				l11.343,1.722l-25.727,35.298h-21.785c0,0-146.409-38.348-194.031-54.885c-2.956-1.026-11.569-4.792-11.569-4.792
				c-3.747-1.088-2.962-6.614,0.942-6.614h8.951h81.401H538.034z"/>
			<path fill="#00A698" d="M786.755,244.445l-70.066-13.513c-2.109-0.326-4.241-0.49-6.374-0.49h-22.043
				c-2.367,0-4.395,1.689-4.819,4.018l0,0c-0.516,2.813,1.479,5.467,4.325,5.755c0,0,60.099,8.132,80.269,8.132
				C780.025,248.348,786.755,244.445,786.755,244.445z"/>
			<g>
				<rect x="389.571" y="229.839" fill="#ACB9CB" width="5.63" height="7.935"/>
				<path fill="#ACB9CB" d="M375.273,242.651h4.135c1.596,0,2.891-1.294,2.891-2.892v-11.908c0-1.596-1.295-2.89-2.891-2.89h-4.135
					c-1.597,0-2.892,1.294-2.892,2.89v11.908C372.381,241.357,373.677,242.651,375.273,242.651z"/>
				<rect x="400.137" y="229.839" fill="#ACB9CB" width="5.63" height="7.935"/>
				<rect x="410.699" y="229.839" fill="#ACB9CB" width="5.63" height="7.935"/>
				<rect x="421.262" y="229.839" fill="#ACB9CB" width="5.629" height="7.935"/>
				<rect x="431.823" y="229.839" fill="#ACB9CB" width="5.63" height="7.935"/>
				<rect x="442.386" y="229.839" fill="#ACB9CB" width="5.63" height="7.935"/>
				<rect x="452.951" y="229.839" fill="#ACB9CB" width="5.629" height="7.935"/>
			</g>
			<g>
				<rect x="485.313" y="229.839" fill="#ACB9CB" width="5.631" height="7.935"/>
				<rect x="495.876" y="229.839" fill="#ACB9CB" width="5.629" height="7.935"/>
				<rect x="506.438" y="229.839" fill="#ACB9CB" width="5.629" height="7.935"/>
				<rect x="517" y="229.839" fill="#ACB9CB" width="5.629" height="7.935"/>
				<rect x="527.564" y="229.839" fill="#ACB9CB" width="5.63" height="7.935"/>
				<rect x="538.127" y="229.839" fill="#ACB9CB" width="5.628" height="7.935"/>
				<rect x="548.69" y="229.839" fill="#ACB9CB" width="5.63" height="7.935"/>
			</g>
			<g>
				<rect x="560.426" y="229.839" fill="#ACB9CB" width="5.627" height="7.935"/>
				<rect x="570.987" y="229.839" fill="#ACB9CB" width="5.63" height="7.935"/>
				<rect x="581.551" y="229.839" fill="#ACB9CB" width="5.628" height="7.935"/>
				<rect x="592.113" y="229.839" fill="#ACB9CB" width="5.631" height="7.935"/>
				<rect x="602.676" y="229.839" fill="#ACB9CB" width="5.629" height="7.935"/>
				<rect x="613.24" y="229.839" fill="#ACB9CB" width="5.628" height="7.935"/>
				<rect x="623.803" y="229.839" fill="#ACB9CB" width="5.628" height="7.935"/>
			</g>
			<path fill="#ACB9CB" d="M638.127,242.651h4.136c1.596,0,2.89-1.293,2.89-2.892v-11.908c0-1.596-1.294-2.89-2.89-2.89h-4.136
				c-1.596,0-2.89,1.294-2.89,2.89v11.908C635.237,241.357,636.532,242.651,638.127,242.651z"/>
			<polygon fill="#029286" points="570.735,156.201 557.463,180.307 540.477,177.295 561.566,156.201 			"/>
			<polygon fill="#029286" points="698.508,281.035 687.166,279.313 650.997,316.333 672.781,316.333 			"/>
		</g>
	</g>
</g>
</svg>
