<?xml version="1.0" encoding="utf-8"?>
<!-- Generator: Adobe Illustrator 22.0.0, SVG Export Plug-In . SVG Version: 6.00 Build 0)  -->
<svg version="1.1" xmlns="http://www.w3.org/2000/svg" xmlns:xlink="http://www.w3.org/1999/xlink" x="0px" y="0px"
	 viewBox="0 0 351.4 327.3" style="enable-background:new 0 0 351.4 327.3;" xml:space="preserve">
<style type="text/css">
	.st0{clip-path:url(#SVGID_2_);}
	.st1{fill:#EBF1FF;}
	.st2{fill:#BBCDF9;}
	.st3{fill:#AEC1FC;}
	.st4{fill:#90A5FC;}
	.st5{fill:#738EE5;}
	.st6{fill:#FFFFFF;}
	.st7{fill:#BDD4FF;}
	.st8{opacity:0.1;fill:#BBDEFB;}
	.st9{opacity:0.39;}
	.st10{fill:#1B173D;}
	.st11{fill:#FFA689;}
	.st12{fill:#4764CF;}
	.st13{fill:#5172ED;}
	.st14{fill:#271F50;}
	.st15{fill:#ED8A6D;}
	.st16{fill:#060412;}
	.st17{fill:none;stroke:#060412;stroke-width:0.9422;stroke-miterlimit:10;}
	.st18{fill:#171032;}
	.st19{fill:#211D49;}
	.st20{opacity:0.22;fill:none;stroke:#FFFFFF;stroke-width:0.25;stroke-miterlimit:10;}
	.st21{fill:#2E2C60;}
	.st22{fill:#1C163F;}
	.st23{fill:none;stroke:#FFFFFF;stroke-width:0.3951;stroke-linecap:round;stroke-linejoin:round;stroke-miterlimit:10;}
	.st24{fill:none;stroke:#FFFFFF;stroke-width:0.4765;stroke-linecap:round;stroke-linejoin:round;stroke-miterlimit:10;}
	.st25{fill:none;stroke:#FFFFFF;stroke-width:0.4362;stroke-linecap:round;stroke-linejoin:round;stroke-miterlimit:10;}
</style>
<g id="OBJECTS">
	<g>
		<g>
			<g>
				<g>
					<defs>
						<path id="SVGID_1_" d="M346.5,1.3H161.9c-1.2,14.3-9.9,40.9-54.9,55.2c-63.5,20.1-94.3,46.6-88,93.4s50.9,79.7,111.7,88.9
							s79.1,46.9,129.7,52.4c41.7,4.5,68.5-1.1,92.2-14.2V7.4C352.6,4.1,349.9,1.3,346.5,1.3z"/>
					</defs>
					<clipPath id="SVGID_2_">
						<use xlink:href="#SVGID_1_"  style="overflow:visible;"/>
					</clipPath>
					<g class="st0">
						<path class="st1" d="M346.5,1.3H161.9c-1.2,14.3-9.9,40.9-54.9,55.2c-63.5,20.1-94.3,46.6-88,93.4s50.9,79.7,111.7,88.9
							s79.1,46.9,129.7,52.4c41.7,4.5,68.5-1.1,92.2-14.2V7.4C352.6,4.1,349.9,1.3,346.5,1.3z"/>
						<g>
							<path class="st2" d="M241.9,105.4l-33.2,10.3l-25.5-15.2c-0.5-0.3-0.4-1.1,0.1-1.2l0,0c3.1-1,6.4-1.2,9.6-0.8L241.9,105.4z"
								/>
							<path class="st3" d="M190,98.4l23.9,14.2l24.6-7.6l-45.6-6.4C191.9,98.4,191,98.4,190,98.4z"/>
							<path class="st4" d="M130,127.7l-0.4,0.1c-3.1,1-6.5,0.7-9.4-0.8l-30.8-15.6c-1.3-0.6-2.7-0.8-4.1-0.3l-2.1,0.7
								c-0.4,0.1-0.6,0.6-0.4,1L93.8,139l1.6,3.8l35.8-11.1L130,127.7z"/>
							<path class="st5" d="M162.1,144.4l136.7-42.4c7.8-2.4,15.4-5.7,22.5-9.9l18-10.4c0.3-0.2,0.5-0.3,0.7-0.5l0,0
								c2.3-2.2,1-6.1-2.1-6.5L317.7,72c-4-0.5-8.1-0.2-11.9,1L96.1,138.2c-0.5,0.1-0.9,0.4-1.2,0.9l0,0c-1,1.3-0.4,3.2,1.2,3.7
								l3.6,1.2C119.9,150.5,141.7,150.7,162.1,144.4z"/>
							<path class="st6" d="M153.2,139.4l151.5-47c8.7-2.7,17-6.4,24.9-10.9l10.2-5.9c-0.5-0.5-1.2-0.8-2-0.9L317.7,72
								c-4-0.5-8.1-0.2-11.9,1L96.1,138.2c-0.5,0.1-0.9,0.4-1.2,0.9c-0.7,0.9-0.6,2,0,2.8C114.1,146.1,134.2,145.3,153.2,139.4z"/>
							<path class="st3" d="M311.6,78.3l16.2-5L317.7,72l-7.3,2.3c-1.1,0.3-1.7,1.5-1.4,2.7l0,0C309.3,78.1,310.4,78.7,311.6,78.3z"
								/>
							<g>
								<path class="st3" d="M289,87l1.3-0.4c0.5-0.1,0.7-0.6,0.6-1.1l-0.4-1.3c-0.1-0.5-0.6-0.7-1.1-0.6L288,84
									c-0.5,0.1-0.7,0.6-0.6,1.1l0.4,1.3C288,86.9,288.5,87.1,289,87z"/>
								<path class="st3" d="M280.1,89.8l1.3-0.4c0.5-0.1,0.7-0.6,0.6-1.1l-0.4-1.3c-0.1-0.5-0.6-0.7-1.1-0.6l-1.3,0.4
									c-0.5,0.1-0.7,0.6-0.6,1.1l0.4,1.3C279.1,89.6,279.6,89.9,280.1,89.8z"/>
								<path class="st3" d="M271.2,92.5l1.3-0.4c0.5-0.1,0.7-0.6,0.6-1.1l-0.4-1.3c-0.1-0.5-0.6-0.7-1.1-0.6l-1.3,0.4
									c-0.5,0.1-0.7,0.6-0.6,1.1l0.4,1.3C270.3,92.4,270.8,92.7,271.2,92.5z"/>
								<path class="st3" d="M262.4,95.3l1.3-0.4c0.5-0.1,0.7-0.6,0.6-1.1l-0.4-1.3c-0.1-0.5-0.6-0.7-1.1-0.6l-1.3,0.4
									c-0.5,0.1-0.7,0.6-0.6,1.1l0.4,1.3C261.4,95.1,261.9,95.4,262.4,95.3z"/>
								<path class="st3" d="M253.5,98l1.3-0.4c0.5-0.1,0.7-0.6,0.6-1.1l-0.4-1.3c-0.1-0.5-0.6-0.7-1.1-0.6l-1.3,0.4
									c-0.5,0.1-0.7,0.6-0.6,1.1l0.4,1.3C252.5,97.9,253,98.2,253.5,98z"/>
								<path class="st3" d="M244.6,100.8l1.3-0.4c0.5-0.1,0.7-0.6,0.6-1.1l-0.4-1.3c-0.1-0.5-0.6-0.7-1.1-0.6l-1.3,0.4
									c-0.5,0.1-0.7,0.6-0.6,1.1l0.4,1.3C243.7,100.6,244.2,100.9,244.6,100.8z"/>
								<path class="st3" d="M235.8,103.5l1.3-0.4c0.5-0.1,0.7-0.6,0.6-1.1l-0.4-1.3c-0.1-0.5-0.6-0.7-1.1-0.6l-1.3,0.4
									c-0.5,0.1-0.7,0.6-0.6,1.1l0.4,1.3C234.8,103.4,235.3,103.7,235.8,103.5z"/>
								<path class="st3" d="M226.9,106.3l1.3-0.4c0.5-0.1,0.7-0.6,0.6-1.1l-0.4-1.3c-0.1-0.5-0.6-0.7-1.1-0.6l-1.3,0.4
									c-0.5,0.1-0.7,0.6-0.6,1.1l0.4,1.3C225.9,106.1,226.4,106.4,226.9,106.3z"/>
								<path class="st3" d="M218.1,109l1.3-0.4c0.5-0.1,0.7-0.6,0.6-1.1l-0.4-1.3c-0.1-0.5-0.6-0.7-1.1-0.6l-1.3,0.4
									c-0.5,0.1-0.7,0.6-0.6,1.1l0.4,1.3C217.1,108.9,217.6,109.2,218.1,109z"/>
								<path class="st3" d="M209.2,111.8l1.3-0.4c0.5-0.1,0.7-0.6,0.6-1.1l-0.4-1.3c-0.1-0.5-0.6-0.7-1.1-0.6l-1.3,0.4
									c-0.5,0.1-0.7,0.6-0.6,1.1l0.4,1.3C208.2,111.6,208.7,111.9,209.2,111.8z"/>
								<path class="st3" d="M200.3,114.5l1.3-0.4c0.5-0.1,0.7-0.6,0.6-1.1l-0.4-1.3c-0.1-0.5-0.6-0.7-1.1-0.6l-1.3,0.4
									c-0.5,0.1-0.7,0.6-0.6,1.1l0.4,1.3C199.4,114.4,199.9,114.7,200.3,114.5z"/>
								<path class="st3" d="M191.5,117.3l1.3-0.4c0.5-0.1,0.7-0.6,0.6-1.1l-0.4-1.3c-0.1-0.5-0.6-0.7-1.1-0.6l-1.3,0.4
									c-0.5,0.1-0.7,0.6-0.6,1.1l0.4,1.3C190.5,117.1,191,117.4,191.5,117.3z"/>
								<path class="st3" d="M182.6,120l1.3-0.4c0.5-0.1,0.7-0.6,0.6-1.1l-0.4-1.3c-0.1-0.5-0.6-0.7-1.1-0.6l-1.3,0.4
									c-0.5,0.1-0.7,0.6-0.6,1.1l0.4,1.3C181.6,119.9,182.1,120.2,182.6,120z"/>
							</g>
							<path class="st2" d="M256,103.8l-51.1,15.9l-18.8,40.8c-0.5,1.1,0.5,2.3,1.7,2l1.2-0.4c3.4-1.1,6.6-2.9,9.2-5.3L256,103.8z"
								/>
							<path class="st3" d="M196.6,157.5c-0.1,0.2-0.1,0.5-0.1,0.7c0.6-0.5,1.2-0.9,1.7-1.4l57.8-52.9l-40.4,12.6L196.6,157.5z"/>
							<polygon class="st4" points="112.6,135.9 94.6,141.4 87.5,156.8 90.8,155.8 							"/>
						</g>
						<g>
							<path class="st6" d="M103.9,91.9c1-1.9,3.9-3.3,7.2-3.3c0.9,0,1.8,0.1,2.6,0.3c0.4-1.2,1.5-2.2,2.9-2.9
								c0.9-4.3,6.7-7.7,13.7-7.7c5.3,0,9.9,1.9,12.2,4.7c1.3-0.5,2.8-0.7,4.4-0.7c4.8,0,8.7,2.5,8.7,5.6c0,0.2,0,0.5-0.1,0.7
								c0.3,0,0.5,0,0.8,0c3.4,0,6.2,1.4,7.2,3.3H103.9z"/>
							<path class="st6" d="M-0.1,122.9c1-1.9,3.9-3.3,7.2-3.3c0.9,0,1.8,0.1,2.6,0.3c0.4-1.2,1.5-2.2,2.9-2.9
								c0.9-4.3,6.7-7.7,13.7-7.7c5.3,0,9.9,1.9,12.2,4.7c1.3-0.5,2.8-0.7,4.4-0.7c4.8,0,8.7,2.5,8.7,5.6c0,0.2,0,0.5-0.1,0.7
								c0.3,0,0.5,0,0.8,0c3.4,0,6.2,1.4,7.2,3.3H-0.1z"/>
							<path class="st6" d="M243.5,142.3c1-1.9,3.9-3.3,7.2-3.3c0.9,0,1.8,0.1,2.6,0.3c0.4-1.2,1.5-2.2,2.9-2.9
								c0.9-4.3,6.7-7.7,13.7-7.7c5.3,0,9.9,1.9,12.2,4.7c1.3-0.5,2.8-0.7,4.4-0.7c4.8,0,8.7,2.5,8.7,5.6c0,0.2,0,0.5-0.1,0.7
								c0.3,0,0.5,0,0.8,0c3.4,0,6.2,1.4,7.2,3.3H243.5z"/>
							<path class="st6" d="M263.9,75.8c-1.1-1.9-3.9-3.3-7.3-3.3c-0.9,0-1.8,0.1-2.7,0.3c-0.4-1.2-1.5-2.2-3-2.9
								c-0.9-4.4-6.8-7.8-13.9-7.8c-5.4,0-10,1.9-12.4,4.8c-1.3-0.5-2.8-0.8-4.4-0.8c-4.9,0-8.9,2.5-8.9,5.7c0,0.2,0,0.5,0.1,0.7
								c-0.3,0-0.5,0-0.8,0c-3.4,0-6.3,1.4-7.3,3.3H263.9z"/>
							<path class="st6" d="M256.7,23.3c0.8-1.5,3.1-2.6,5.8-2.6c0.7,0,1.5,0.1,2.1,0.2c0.3-0.9,1.2-1.7,2.3-2.3
								c0.7-3.5,5.3-6.1,10.9-6.1c4.2,0,7.9,1.5,9.7,3.7c1-0.4,2.2-0.6,3.5-0.6c3.9,0,7,2,7,4.5c0,0.2,0,0.4-0.1,0.6
								c0.2,0,0.4,0,0.6,0c2.7,0,4.9,1.1,5.8,2.6H256.7z"/>
							<path class="st6" d="M181.3,16.3c0.4-0.7,1.4-1.2,2.6-1.2c0.3,0,0.6,0,0.9,0.1c0.1-0.4,0.5-0.8,1-1c0.3-1.5,2.4-2.7,4.8-2.7
								c1.9,0,3.5,0.7,4.3,1.7c0.5-0.2,1-0.3,1.5-0.3c1.7,0,3.1,0.9,3.1,2c0,0.1,0,0.2,0,0.3c0.1,0,0.2,0,0.3,0
								c1.2,0,2.2,0.5,2.6,1.2H181.3z"/>
							<path class="st6" d="M378,120.2c-0.9-1.7-3.5-3-6.6-3c-0.8,0-1.7,0.1-2.4,0.3c-0.4-1.1-1.3-2-2.7-2.6c-0.8-3.9-6.1-7-12.4-7
								c-4.8,0-9,1.7-11.1,4.3c-1.2-0.4-2.5-0.7-4-0.7c-4.4,0-7.9,2.3-7.9,5.1c0,0.2,0,0.4,0.1,0.7c-0.2,0-0.5,0-0.7,0
								c-3,0-5.6,1.3-6.6,3H378z"/>
						</g>
						<g>
							<rect x="6.5" y="235" class="st7" width="400" height="71.7"/>
							<rect x="6.5" y="208.5" class="st7" width="400" height="15.5"/>
						</g>
						<g>
							<rect x="0.6" y="1.3" class="st8" width="352" height="300"/>
							<g class="st9">
								<polygon class="st6" points="-4,298.9 -19.7,298.9 183.8,-14.2 199.4,-14.2 								"/>
								<polygon class="st6" points="253.7,298.9 238.1,298.9 441.5,-14.2 457.2,-14.2 								"/>
								<polygon class="st6" points="224.8,298.9 165.9,298.9 369.4,-14.2 428.3,-14.2 								"/>
								<polygon class="st6" points="-32.3,298.9 -91.3,298.9 112.2,-14.2 171.1,-14.2 								"/>
							</g>
						</g>
						<g>
							<rect x="88.5" y="-33.3" class="st6" width="8.6" height="331"/>
							<rect x="309.9" y="-33.3" class="st6" width="8.6" height="331"/>
							
								<rect x="199.1" y="-176.3" transform="matrix(-1.836970e-16 1 -1 -1.836970e-16 256.6294 -150.3752)" class="st6" width="8.8" height="458.8"/>
						</g>
					</g>
				</g>
				<g>
					<g>
						<ellipse class="st1" cx="172.1" cy="301.7" rx="77.9" ry="7.6"/>
						<g>
							<path class="st10" d="M204,195.2l-27.7,7c0,0,7.1,31,9.9,42.4c2.8,11.6,1.3,49,1.3,49h7.9l4.3-49.2L204,195.2z"/>
							<path class="st11" d="M198,144.8c0,0,2.8,9.7,7.4,26.2c0,0,5.9,2.1,21.7,3.3l-0.5,5.3c0,0-17.5,3.2-27.2-0.8
								C189.8,174.8,181.7,139.5,198,144.8z"/>
							<g>
								<polygon class="st12" points="213.3,178.8 221.6,188.4 235,171 229.6,160.6 								"/>
								<polygon class="st13" points="211.8,182.8 225.9,164 235,171 221.6,188.4 								"/>
							</g>
							<path class="st11" d="M232.6,174.9c-0.1-0.3-0.4-0.4-0.7-0.2c-0.5,0.3-1.1,1-2.4,1.1c-1.4,0-3.1-0.9-3.7-0.3
								c0,0-2.9,3.8,0,7.5C225.8,182.9,234.9,185.2,232.6,174.9z"/>
							<path class="st12" d="M192.4,172.9c0,0,7-1,12.8-6c0,0-2-11-4.9-17.6c-2.8-6.6-7.3-12.4-14.6-8.1S180.6,155.4,192.4,172.9z"
								/>
							<path class="st13" d="M168.9,168.5c0,0,6,3.8,13.6,3.8c0,0,5.6-9.6,7.8-16.5c2.2-6.9,2.6-14.2-5.8-15.7
								C176.2,138.7,171.4,147.5,168.9,168.5z"/>
							<path class="st14" d="M200.2,198.2c0,0-17.1-5.8-27.7,3.8c0,0,1.9,9,7.8,19.7c9.9,18.1,14.9,24,14.9,24s-10.8,9.6-31.5,33.5
								c0,0,1.3,4.9,5.5,6.5c0,0,30.4-28.7,39.6-36.3c3-2.5,2.4-4.4,1.2-9.9C208,230,201.4,202.4,200.2,198.2z"/>
							<path class="st11" d="M185.7,127.1l-0.4,7.5c0,0,5.9,4.8,10.7,4.6l2.2-10l-13.7-9.3L185.7,127.1z"/>
							<path class="st15" d="M188.5,125.7c0,0,3.1,5.8,8.8,7.6l0.9-4.2L188.5,125.7z"/>
							<g>
								<path class="st16" d="M176.4,229.1l-14-10.6c-0.8-0.6-0.9-1.7-0.3-2.5l0,0c0.6-0.8,1.7-0.9,2.5-0.3l14,10.6
									c0.8,0.6,0.9,1.7,0.3,2.5l0,0C178.3,229.6,177.2,229.7,176.4,229.1z"/>
								<line class="st17" x1="164.8" y1="219.7" x2="134.1" y2="260.1"/>
								<line class="st17" x1="174.6" y1="227.2" x2="143.9" y2="267.6"/>
							</g>
							<path class="st18" d="M173.4,146.1c0,0-14.9,0.8-17.3,9.2c-2.4,8.4-2.1,41.6-2.1,41.6s3.2,7.5,13.3,8.5c0,0,5.3,1.2,5-9.8
								C171.9,184.5,173.4,146.1,173.4,146.1z"/>
							<path class="st19" d="M165,147.8c0,0-1.5,1.3-2.3,3c-2.9,6.3-2,23.3-3.3,24.7c-1,1.1-2.8,1.4-4.5,1.8c-0.7,0.2-1.6-0.3-1.6-1
								C154,161.8,152.9,149.7,165,147.8z"/>
							<path class="st19" d="M154.1,179.3c0,0,4-0.9,4.7,0c1,1.4,0.6,17-0.5,17.4c-1.1,0.4-5,0.1-5.3-0.2
								C152.3,195.3,151.7,179.8,154.1,179.3z"/>
							<path class="st11" d="M204.7,108.3c0,0,4.1,20.1-2,22.6c-6.2,2.5-15.1-3.8-17.3-10.2C183.4,115.2,183.6,102.3,204.7,108.3z"
								/>
							<path class="st18" d="M198.6,111.4c0,0,1.7,4.3-1.6,5.3c-2.7,0.8-3.5,2.8-3.5,2.8s-0.5-4.3-3.5-4.5c-3.2-0.2-3,4.4-0.2,6.6
								c0,0,0,5.4-4.1,5.4c0,0-9.3-10.7-5.3-17.2c-0.6-2,2.2-7.2,9.3-7.9c7.2-0.7,9.2,1,14.7-0.7C209.6,99.7,213,112.1,198.6,111.4z
								"/>
							<polyline class="st20" points="186.8,196.5 205.2,244.4 166.1,281.9 							"/>
							<g>
								<path class="st16" d="M134.9,301.7c0,2.5-2,4.5-4.5,4.5c-2.5,0-4.5-2-4.5-4.5c0-2.5,2-4.5,4.5-4.5
									C132.9,297.2,134.9,299.2,134.9,301.7z"/>
								<path class="st16" d="M118.3,293.8c0,2.5-2,4.5-4.5,4.5c-2.5,0-4.5-2-4.5-4.5c0-2.5,2-4.5,4.5-4.5
									C116.3,289.3,118.3,291.3,118.3,293.8z"/>
								<path class="st16" d="M154.6,259.3c0,0,1.4,20-5.8,31c-7.2,11-17.6,9.3-17.6,9.3l2.2-3.4c0,0,7.5,3.1,12-8.7
									c4.5-11.8,3.6-24,3.6-24L154.6,259.3z"/>
								<path class="st18" d="M146.3,253.6c0,0,4.5,0.4,8,4.7c2.7,3.3-17.8,35-22.4,42c-0.6,0.8-1.6,1.2-2.5,1
									c-3.3-0.9-10.9-3.2-16.5-7.4C112.9,293.9,134.1,256.7,146.3,253.6z"/>
								<path class="st19" d="M147.9,254c0,0-16.8-10.1-25.9-1.7c-6,5.6-17.6,21.3-22,27.5c-1.1,1.5-0.9,3.6,0.4,4.9
									c2.9,2.8,8.9,7.3,13.2,9.6c0.6,0.3,1.4,0.1,1.8-0.5C119.1,288.2,136.6,262.2,147.9,254z"/>
								<path class="st21" d="M110.6,266.6c-0.7-0.5-1.6-0.2-2.2,0.4c-2.1,2.8-7.5,9.8-8.3,11.2c-1.6,2.6,4.8,8.1,12.5,12.2
									c2.4,1.3,5.4-4.3,8.5-8.5c2.1-2.8,3.8-5.3,3.6-6.2c-0.3-1-4.3-2.2-8-4.5C114.4,269.7,112.3,268,110.6,266.6z"/>
								<path class="st21" d="M147.9,254c0,0-7.6-5.4-18.4-5.6c-9.2-0.1-19.2,15.7-19.2,15.7c-1.3,1.7,14.4,11.2,16.2,9
									c6.9-8.5,13.7-15,17.2-18.2C143.8,254.8,145.7,253.3,147.9,254z"/>
								<path class="st22" d="M119.3,292.2l9.4-14.1c0.3-0.5,1-0.7,1.6-0.4l9.2,4.4c0.6,0.3,0.8,1,0.4,1.5l-9.1,13.8
									c-0.5,0.8-1.5,1.1-2.4,0.7l-8.3-3.5C119.1,294.2,118.8,293,119.3,292.2z"/>
							</g>
							<g>
								<g>
									<g>
										<path class="st13" d="M183.2,135.5c0,0-9.2,1.7-10.7,15.4c-1.5,13.7,0,52.6,0,52.6s8.6,3.3,18.3-1.4
											c6.3-3.1,10.3-3.2,12-3.6c0.7-0.2,1.2-0.8,1.2-1.5c0-1.5,0-4.4,0-8.7c0-12.1-1.3-32.8-6.6-46.9
											C197.5,141.3,188.6,135.9,183.2,135.5z"/>
									</g>
								</g>
							</g>
							<path class="st12" d="M189.4,160.6c-7.7-0.4-13.3,2.7-17.5,7.4c-0.1,16.2,0.7,35.5,0.7,35.5s5.1,2,11.9,0.7
								c-4.9-7.4-4.9-14.3-0.7-22.7C187.1,174.8,189.4,160.6,189.4,160.6z"/>
							<g>
								<path class="st18" d="M172.5,150.9c0,0,7.3-11.9,12.6-9.8c6.5,2.5,7.9,15.1-1.9,28.4L178,175l-1.3,4.9
									c0,0,13.3-11.8,16.5-23.2c3.1-11.4-1-16-6.7-17.9c-7.1-2.4-10.4,1.9-14.7,7.8L172.5,150.9z"/>
								<g>
									<path class="st11" d="M171.3,163.1c0,0-2.2,9.7-3,21.9c-0.6,10.3-0.7,23-0.7,26.7c0,0.6-0.3,1.3-0.7,1.7
										c-1.2,1.2-3.6,4.2-3.2,8.9c0.1,1.7,0.9,4,5,5.3c0.6,0.2,2.1,0.8,2.1-2.1c0-2.9,1.2-4.9,2.4-5.8c1.2-1,2.4,1.6,2.4,3.7
										c0,2.1,1.4,0.8,1.7-0.7s0.1-5.5-3.1-9.6c0,0-0.1-0.7,0.3-5.7c0.4-5,1.2-21.8,3-26.2c1.8-4.3,6.9-16.6,6.9-16.6L171.3,163.1
										z"/>
									<path class="st13" d="M168.9,169.5c0,0,6,2.8,13.6,2.8c0,0,5.6-9.6,7.8-16.5c2.2-6.9,2.6-14.2-5.8-15.7
										C176.2,138.7,171.4,148.5,168.9,169.5z"/>
								</g>
							</g>
							<g>
								<g>
									<g>
										<path class="st18" d="M187.7,292.7c0,0-2.2,3.2-1.1,7.8c0.2,0.7,0.7,1.2,1.4,1.2h23.8c0.5,0,0.9-0.5,0.8-1
											c-0.2-1.4-1.3-3.7-6.9-4.4c-1.5-0.2-3-0.8-4.3-1.7c-2-1.6-5.1-3.8-6.2-3.2C195.2,291.5,191.8,293.5,187.7,292.7z"/>
									</g>
								</g>
							</g>
							<path class="st14" d="M185.4,132.9c-0.8,0-2.2,2.6-2.2,2.6s2.5,1.9,8.6,4.2c2.8,1,4.3,2.5,4.9,3.4c0.2,0.3,0.6,0.2,0.7-0.2
								c0.2-1.4,0.3-3.7-1.1-5.1C196.3,137.8,187.9,135.5,185.4,132.9z"/>
							<g>
								<g>
									<g>
										<path class="st18" d="M163.8,279.3c0,0-3.9,0.5-6.6,4.4c-0.4,0.6-0.4,1.3,0.1,1.8l15.8,17.8c0.3,0.4,0.9,0.4,1.3,0
											c0.9-1,1.9-3.4-1.3-8.1c-0.9-1.3-1.4-2.8-1.5-4.3c-0.2-2.6-0.6-6.3-1.8-6.7C169.8,284,166,282.8,163.8,279.3z"/>
									</g>
								</g>
							</g>
							<polygon class="st16" points="173.7,222.5 177.4,225.4 177.1,227 172.7,224.9 							"/>
						</g>
					</g>
					<g>
						<path class="st22" d="M71.5,256.8c0,1.1-5.9,1.9-13.1,1.9c-7.2,0-13.1-0.9-13.1-1.9c0-1.1,5.9-1.9,13.1-1.9
							C65.7,254.9,71.5,255.8,71.5,256.8z"/>
						<ellipse class="st1" cx="58.4" cy="301.1" rx="24.6" ry="2.8"/>
						<g>
							<g>
								<path class="st4" d="M61.6,260.3c0,0-2.7-8.2,0.8-11.8c3.5-3.7-2.1-9.9,6.1-13.4c8.2-3.5,7.9-11.7,15.1-11.8
									c7.1,0,12.7-3.4,15.1-0.2c2.3,3.2-8.5,4.7-8.5,10c0,5.3-1.1,5.9-4,9.2c-1.6,1.9-0.9,6-4.5,10
									C78.7,255.4,71.2,254.3,61.6,260.3z"/>
								<path class="st23" d="M61.6,260.3c0,0,3.4-8.2,11.3-12.5c7.9-4.3,5.1-22,25.7-24.7"/>
							</g>
							<g>
								<path class="st13" d="M63.2,264.1c0,0-1.4-11.7,1.2-21c2.6-9.4-1.7-12.4-9.1-14.8c-7.4-2.4-2.8-10.2-5-17.4
									c-2.2-7.2-7.7,4-9.6-5.8c-1.8-9.8-4.6-14.9-6.9-14.5c-2.2,0.4-3,2.6-4.6,13.8c-1.6,11.2-9.4,10.4-2.6,19.3
									c6.8,8.9,8.5,6.4,4.7,14.1C23.5,254.3,52.2,249.5,63.2,264.1z"/>
								<path class="st24" d="M63.2,264.1c0,0-3.7-19.6-14.3-29.3c-10.6-9.7-17.6-20.1-15-44.2"/>
							</g>
							<g>
								<path class="st4" d="M59.6,262.5c0,0-11.5-30.5-19.4-28.6c-7.9,1.9-8.7,2.3-16-3.4c-7.2-5.8-12.5,0.5-7,5.2
									c5.5,4.6,5.7,5,0.5,10.1c-5.3,5.1,7.3,10.8,18.4,9.1C47.1,253.2,57.8,260,59.6,262.5z"/>
								<path class="st25" d="M59.6,262.5c0,0-5.4-11.3-19.9-14.3c-14.5-2.9-7.7-12.5-24.7-17"/>
							</g>
						</g>
						<path class="st21" d="M58.4,258.8c-6,0-11.1-0.6-12.6-1.4c1.5,1.9,6.2,10.5,9.1,43.4c0,0.5,1.6,0.9,3.6,0.9
							c2,0,3.6-0.4,3.6-0.9c2.8-32.9,7.6-41.4,9.1-43.4C69.6,258.2,64.5,258.8,58.4,258.8z"/>
					</g>
				</g>
			</g>
		</g>
	</g>
</g>
<g id="DESIGNED_BY_FREEPIK">
</g>
</svg>
